<mxfile host="Electron" modified="2023-05-11T07:30:36.929Z" agent="Mozilla/5.0 (Windows NT 10.0; Win64; x64) AppleWebKit/537.36 (KHTML, like Gecko) draw.io/21.2.8 Chrome/112.0.5615.165 Electron/24.2.0 Safari/537.36" etag="Kbwl8s4l12hhW4lhEb8m" version="21.2.8" type="device">
  <diagram id="C5RBs43oDa-KdzZeNtuy" name="Page-1">
    <mxGraphModel dx="1571" dy="1414" grid="1" gridSize="10" guides="1" tooltips="1" connect="1" arrows="1" fold="1" page="1" pageScale="1" pageWidth="1169" pageHeight="827" math="0" shadow="0">
      <root>
        <mxCell id="WIyWlLk6GJQsqaUBKTNV-0" />
        <mxCell id="WIyWlLk6GJQsqaUBKTNV-1" parent="WIyWlLk6GJQsqaUBKTNV-0" />
        <mxCell id="WIyWlLk6GJQsqaUBKTNV-2" value="" style="rounded=0;html=1;jettySize=auto;orthogonalLoop=1;fontSize=11;endArrow=block;endFill=0;endSize=8;strokeWidth=1;shadow=0;labelBackgroundColor=none;edgeStyle=orthogonalEdgeStyle;" parent="WIyWlLk6GJQsqaUBKTNV-1" source="WIyWlLk6GJQsqaUBKTNV-3" edge="1">
          <mxGeometry relative="1" as="geometry">
            <mxPoint x="470.02857142857135" y="234.0228571428571" as="targetPoint" />
            <Array as="points">
              <mxPoint x="470" y="204" />
              <mxPoint x="470" y="204" />
            </Array>
          </mxGeometry>
        </mxCell>
        <mxCell id="WIyWlLk6GJQsqaUBKTNV-3" value="请求某Asset" style="rounded=1;whiteSpace=wrap;html=1;fontSize=12;glass=0;strokeWidth=1;shadow=0;" parent="WIyWlLk6GJQsqaUBKTNV-1" vertex="1">
          <mxGeometry x="410" y="144" width="120" height="40" as="geometry" />
        </mxCell>
        <mxCell id="cMdaHDpcUsGcFHjsHnRZ-5" style="edgeStyle=orthogonalEdgeStyle;rounded=0;orthogonalLoop=1;jettySize=auto;html=1;entryX=0.5;entryY=0;entryDx=0;entryDy=0;" edge="1" parent="WIyWlLk6GJQsqaUBKTNV-1" source="cMdaHDpcUsGcFHjsHnRZ-1" target="cMdaHDpcUsGcFHjsHnRZ-4">
          <mxGeometry relative="1" as="geometry" />
        </mxCell>
        <mxCell id="cMdaHDpcUsGcFHjsHnRZ-6" value="是" style="edgeLabel;html=1;align=center;verticalAlign=middle;resizable=0;points=[];" vertex="1" connectable="0" parent="cMdaHDpcUsGcFHjsHnRZ-5">
          <mxGeometry x="-0.1856" y="3" relative="1" as="geometry">
            <mxPoint x="9" y="-3" as="offset" />
          </mxGeometry>
        </mxCell>
        <mxCell id="cMdaHDpcUsGcFHjsHnRZ-11" style="edgeStyle=orthogonalEdgeStyle;rounded=0;orthogonalLoop=1;jettySize=auto;html=1;entryX=0.5;entryY=0;entryDx=0;entryDy=0;exitX=1;exitY=0.5;exitDx=0;exitDy=0;" edge="1" parent="WIyWlLk6GJQsqaUBKTNV-1" source="cMdaHDpcUsGcFHjsHnRZ-1" target="cMdaHDpcUsGcFHjsHnRZ-13">
          <mxGeometry relative="1" as="geometry">
            <mxPoint x="640" y="364" as="targetPoint" />
          </mxGeometry>
        </mxCell>
        <mxCell id="cMdaHDpcUsGcFHjsHnRZ-12" value="否" style="edgeLabel;html=1;align=center;verticalAlign=middle;resizable=0;points=[];" vertex="1" connectable="0" parent="cMdaHDpcUsGcFHjsHnRZ-11">
          <mxGeometry x="-0.298" y="1" relative="1" as="geometry">
            <mxPoint as="offset" />
          </mxGeometry>
        </mxCell>
        <mxCell id="cMdaHDpcUsGcFHjsHnRZ-1" value="检查&lt;br style=&quot;border-color: var(--border-color);&quot;&gt;是否已载入" style="rhombus;whiteSpace=wrap;html=1;" vertex="1" parent="WIyWlLk6GJQsqaUBKTNV-1">
          <mxGeometry x="380" y="234" width="180" height="80" as="geometry" />
        </mxCell>
        <mxCell id="cMdaHDpcUsGcFHjsHnRZ-3" value="查询" style="edgeStyle=orthogonalEdgeStyle;rounded=0;orthogonalLoop=1;jettySize=auto;html=1;" edge="1" parent="WIyWlLk6GJQsqaUBKTNV-1" source="cMdaHDpcUsGcFHjsHnRZ-2" target="cMdaHDpcUsGcFHjsHnRZ-1">
          <mxGeometry relative="1" as="geometry" />
        </mxCell>
        <mxCell id="cMdaHDpcUsGcFHjsHnRZ-7" value="获取" style="edgeStyle=orthogonalEdgeStyle;rounded=0;orthogonalLoop=1;jettySize=auto;html=1;entryX=1;entryY=0.5;entryDx=0;entryDy=0;" edge="1" parent="WIyWlLk6GJQsqaUBKTNV-1" source="cMdaHDpcUsGcFHjsHnRZ-2" target="cMdaHDpcUsGcFHjsHnRZ-4">
          <mxGeometry relative="1" as="geometry" />
        </mxCell>
        <mxCell id="cMdaHDpcUsGcFHjsHnRZ-2" value="Asset&lt;br&gt;内存池" style="shape=cylinder3;whiteSpace=wrap;html=1;boundedLbl=1;backgroundOutline=1;size=15;" vertex="1" parent="WIyWlLk6GJQsqaUBKTNV-1">
          <mxGeometry x="440" y="354" width="60" height="80" as="geometry" />
        </mxCell>
        <mxCell id="cMdaHDpcUsGcFHjsHnRZ-4" value="返回对象句柄" style="rounded=1;whiteSpace=wrap;html=1;" vertex="1" parent="WIyWlLk6GJQsqaUBKTNV-1">
          <mxGeometry x="240" y="364" width="120" height="60" as="geometry" />
        </mxCell>
        <mxCell id="cMdaHDpcUsGcFHjsHnRZ-14" value="不存在" style="edgeStyle=orthogonalEdgeStyle;rounded=0;orthogonalLoop=1;jettySize=auto;html=1;entryX=0;entryY=0.5;entryDx=0;entryDy=0;" edge="1" parent="WIyWlLk6GJQsqaUBKTNV-1" source="cMdaHDpcUsGcFHjsHnRZ-13" target="cMdaHDpcUsGcFHjsHnRZ-15">
          <mxGeometry relative="1" as="geometry">
            <mxPoint x="800" y="404" as="targetPoint" />
            <Array as="points">
              <mxPoint x="775" y="404" />
              <mxPoint x="775" y="405" />
              <mxPoint x="800" y="405" />
              <mxPoint x="800" y="404" />
            </Array>
          </mxGeometry>
        </mxCell>
        <mxCell id="cMdaHDpcUsGcFHjsHnRZ-19" value="存在" style="edgeStyle=orthogonalEdgeStyle;rounded=0;orthogonalLoop=1;jettySize=auto;html=1;entryX=0.5;entryY=0;entryDx=0;entryDy=0;" edge="1" parent="WIyWlLk6GJQsqaUBKTNV-1" source="cMdaHDpcUsGcFHjsHnRZ-13" target="cMdaHDpcUsGcFHjsHnRZ-17">
          <mxGeometry relative="1" as="geometry" />
        </mxCell>
        <mxCell id="cMdaHDpcUsGcFHjsHnRZ-13" value="在FS上根据路径&lt;br style=&quot;border-color: var(--border-color);&quot;&gt;寻找Asset" style="rhombus;whiteSpace=wrap;html=1;" vertex="1" parent="WIyWlLk6GJQsqaUBKTNV-1">
          <mxGeometry x="540" y="364" width="210" height="80" as="geometry" />
        </mxCell>
        <mxCell id="cMdaHDpcUsGcFHjsHnRZ-15" value="异常" style="rounded=1;whiteSpace=wrap;html=1;" vertex="1" parent="WIyWlLk6GJQsqaUBKTNV-1">
          <mxGeometry x="810" y="374" width="120" height="60" as="geometry" />
        </mxCell>
        <mxCell id="cMdaHDpcUsGcFHjsHnRZ-20" style="edgeStyle=orthogonalEdgeStyle;rounded=0;orthogonalLoop=1;jettySize=auto;html=1;entryX=0.5;entryY=1;entryDx=0;entryDy=0;entryPerimeter=0;" edge="1" parent="WIyWlLk6GJQsqaUBKTNV-1" source="cMdaHDpcUsGcFHjsHnRZ-17" target="cMdaHDpcUsGcFHjsHnRZ-2">
          <mxGeometry relative="1" as="geometry" />
        </mxCell>
        <mxCell id="cMdaHDpcUsGcFHjsHnRZ-21" value="存入" style="edgeLabel;html=1;align=center;verticalAlign=middle;resizable=0;points=[];" vertex="1" connectable="0" parent="cMdaHDpcUsGcFHjsHnRZ-20">
          <mxGeometry x="-0.1535" y="2" relative="1" as="geometry">
            <mxPoint as="offset" />
          </mxGeometry>
        </mxCell>
        <mxCell id="cMdaHDpcUsGcFHjsHnRZ-22" style="edgeStyle=orthogonalEdgeStyle;rounded=0;orthogonalLoop=1;jettySize=auto;html=1;" edge="1" parent="WIyWlLk6GJQsqaUBKTNV-1" source="cMdaHDpcUsGcFHjsHnRZ-17">
          <mxGeometry relative="1" as="geometry">
            <mxPoint x="645" y="624" as="targetPoint" />
          </mxGeometry>
        </mxCell>
        <mxCell id="cMdaHDpcUsGcFHjsHnRZ-17" value="读取各json&lt;br&gt;解析、产生对象" style="rounded=1;whiteSpace=wrap;html=1;" vertex="1" parent="WIyWlLk6GJQsqaUBKTNV-1">
          <mxGeometry x="585" y="509" width="120" height="60" as="geometry" />
        </mxCell>
        <mxCell id="cMdaHDpcUsGcFHjsHnRZ-23" value="返回句柄" style="rounded=1;whiteSpace=wrap;html=1;" vertex="1" parent="WIyWlLk6GJQsqaUBKTNV-1">
          <mxGeometry x="585" y="624" width="120" height="60" as="geometry" />
        </mxCell>
      </root>
    </mxGraphModel>
  </diagram>
</mxfile>
